<svg xmlns="http://www.w3.org/2000/svg" viewBox="0 0 64 64">
  <title>BCForge</title>
  <rect
    x="2"
    y="2"
    width="60"
    height="60"
    rx="15"
    fill="#F4F2ED"
    stroke="#0B0B0D"
    stroke-width="4"
  />
  <path
    d="M54 19C51.2 15.4 47.1 13.5 42.3 13.5C33.5 13.5 28.4 20.4 28.4 32C28.4 43.6 33.8 50.5 42.5 50.5C47.4 50.5 51.4 48.6 54.3 44.8"
    fill="none"
    stroke="#0B0B0D"
    stroke-width="6.5"
    stroke-linecap="round"
  />
  <path
    fill="#0B0B0D"
    fill-rule="evenodd"
    d="M9 13H21.5C29 13 33.5 16.6 33.5 22.7C33.5 26.2 31.7 29 28.6 30.4C32.3 31.9 34.6 35.1 34.6 39.1C34.6 46 29.6 51 21.8 51H9V13ZM16 19.5V27.7H21.2C24.8 27.7 26.5 26.3 26.5 23.6C26.5 20.8 24.8 19.5 21.2 19.5H16ZM16 34.1V44.4H21.8C25.8 44.4 27.6 42.7 27.6 39.2C27.6 35.8 25.8 34.1 21.8 34.1H16Z"
  />
  <rect
    x="29.8"
    y="28.8"
    width="6.4"
    height="6.4"
    rx="1"
    fill="#FF4D00"
    transform="rotate(45 33 32)"
  />
</svg>
